<svg width="36" height="36" viewBox="0 0 36 36" fill="none" xmlns="http://www.w3.org/2000/svg">
<path d="M17.9185 31.5001L15.8136 29.5501C13.3701 27.2751 11.3499 25.3126 9.75315 23.6626C8.15638 22.0126 6.88622 20.5376 5.94267 19.2376C4.99912 17.9126 4.3338 16.7001 3.9467 15.6001C3.5838 14.5001 3.40234 13.3751 3.40234 12.2251C3.40234 9.8751 4.16444 7.9126 5.68863 6.3376C7.21283 4.7626 9.11202 3.9751 11.3862 3.9751C12.6443 3.9751 13.8419 4.2501 14.979 4.8001C16.1161 5.3501 17.0959 6.1251 17.9185 7.1251C18.7411 6.1251 19.7209 5.3501 20.858 4.8001C21.9951 4.2501 23.1927 3.9751 24.4507 3.9751C26.7249 3.9751 28.6241 4.7626 30.1483 6.3376C31.6725 7.9126 32.4346 9.8751 32.4346 12.2251C32.4346 13.3751 32.2411 14.5001 31.854 15.6001C31.4911 16.7001 30.8378 17.9126 29.8943 19.2376C28.9507 20.5376 27.6806 22.0126 26.0838 23.6626C24.487 25.3126 22.4669 27.2751 20.0233 29.5501L17.9185 31.5001ZM17.9185 27.4501C20.2411 25.3001 22.1523 23.4626 23.6523 21.9376C25.1523 20.3876 26.3378 19.0501 27.2088 17.9251C28.0798 16.7751 28.6846 15.7626 29.0233 14.8876C29.362 13.9876 29.5314 13.1001 29.5314 12.2251C29.5314 10.7251 29.0475 9.4751 28.0798 8.4751C27.112 7.4751 25.9023 6.9751 24.4507 6.9751C23.3136 6.9751 22.2612 7.3126 21.2935 7.9876C20.3257 8.6376 19.6604 9.4751 19.2975 10.5001H16.5394C16.1765 9.4751 15.5112 8.6376 14.5435 7.9876C13.5757 7.3126 12.5233 6.9751 11.3862 6.9751C9.9346 6.9751 8.72492 7.4751 7.75718 8.4751C6.78944 9.4751 6.30557 10.7251 6.30557 12.2251C6.30557 13.1001 6.47493 13.9876 6.81364 14.8876C7.15234 15.7626 7.75718 16.7751 8.62815 17.9251C9.49912 19.0501 10.6846 20.3876 12.1846 21.9376C13.6846 23.4626 15.5959 25.3001 17.9185 27.4501Z" fill="#1D1B20"/>
</svg>
