<svg width="34" height="36" viewBox="0 0 34 36" fill="none" xmlns="http://www.w3.org/2000/svg">
<path d="M28.2742 16.3125L26.0312 13.8673V7.875C26.0312 6.94687 25.3352 6.1875 24.4844 6.1875H22.9375C22.0867 6.1875 21.3906 6.94687 21.3906 7.875V8.80819L18.2969 5.43656C17.8746 5.00119 17.4879 4.5 16.75 4.5C16.0121 4.5 15.6254 5.00119 15.2031 5.43656L5.22578 16.3125C4.74316 16.8609 4.375 17.2609 4.375 18C4.375 18.9501 5.04325 19.6875 5.92188 19.6875H7.46875V29.8125C7.46875 30.7406 8.16484 31.5 9.01562 31.5H12.1094C12.9637 31.5 13.6562 30.7445 13.6562 29.8125V23.0625C13.6562 22.1344 14.3523 21.375 15.2031 21.375H18.2969C19.1477 21.375 19.8438 22.1344 19.8438 23.0625V29.8125C19.8438 30.7445 19.7629 31.5 20.6172 31.5H24.4844C25.3352 31.5 26.0312 30.7406 26.0312 29.8125V19.6875H27.5781C28.4568 19.6875 29.125 18.9501 29.125 18C29.125 17.2609 28.7568 16.8609 28.2742 16.3125Z" stroke="black" stroke-width="2" stroke-linejoin="round"/>
</svg>
