<svg width="37" height="36" viewBox="0 0 37 36" fill="none" xmlns="http://www.w3.org/2000/svg">
<path d="M18.5 33C18.15 33 17.85 32.9 17.6 32.7C17.35 32.5 17.1625 32.2375 17.0375 31.9125C16.5625 30.5125 15.9625 29.2 15.2375 27.975C14.5375 26.75 13.55 25.3125 12.275 23.6625C11 22.0125 9.9625 20.4375 9.1625 18.9375C8.3875 17.4375 8 15.625 8 13.5C8 10.575 9.0125 8.1 11.0375 6.075C13.0875 4.025 15.575 3 18.5 3C21.425 3 23.9 4.025 25.925 6.075C27.975 8.1 29 10.575 29 13.5C29 15.775 28.5625 17.675 27.6875 19.2C26.8375 20.7 25.85 22.1875 24.725 23.6625C23.375 25.4625 22.35 26.9625 21.65 28.1625C20.975 29.3375 20.4125 30.5875 19.9625 31.9125C19.8375 32.2625 19.6375 32.5375 19.3625 32.7375C19.1125 32.9125 18.825 33 18.5 33ZM18.5 17.25C19.55 17.25 20.4375 16.8875 21.1625 16.1625C21.8875 15.4375 22.25 14.55 22.25 13.5C22.25 12.45 21.8875 11.5625 21.1625 10.8375C20.4375 10.1125 19.55 9.75 18.5 9.75C17.45 9.75 16.5625 10.1125 15.8375 10.8375C15.1125 11.5625 14.75 12.45 14.75 13.5C14.75 14.55 15.1125 15.4375 15.8375 16.1625C16.5625 16.8875 17.45 17.25 18.5 17.25Z" fill="#1D1B20"/>
</svg>
