<svg width="21" height="24" viewBox="0 0 21 24" fill="none" xmlns="http://www.w3.org/2000/svg">
<path d="M3.84233 8.33446C3.84233 7.65 4.01095 6.97224 4.33856 6.33988C4.66617 5.70752 5.14635 5.13295 5.7517 4.64896C6.35704 4.16497 7.07569 3.78105 7.86661 3.51912C8.65754 3.25719 9.50524 3.12238 10.3613 3.12238C11.2174 3.12238 12.0651 3.25719 12.856 3.51912C13.647 3.78105 14.3656 4.16497 14.971 4.64896C15.5763 5.13295 16.0565 5.70752 16.3841 6.33988C16.7117 6.97224 16.8803 7.65 16.8803 8.33446C16.8803 9.01892 16.7117 9.69668 16.3841 10.329C16.0565 10.9614 15.5763 11.536 14.971 12.02C14.3656 12.5039 13.647 12.8879 12.856 13.1498C12.0651 13.4117 11.2174 13.5465 10.3613 13.5465C9.50524 13.5465 8.65754 13.4117 7.86661 13.1498C7.07569 12.8879 6.35704 12.5039 5.7517 12.02C5.14635 11.536 4.66617 10.9614 4.33856 10.329C4.01095 9.69668 3.84233 9.01892 3.84233 8.33446ZM12.2239 16.3899C16.9909 15.6919 20.6055 12.3506 20.6055 8.33446C20.6055 3.81112 16.0189 0.144043 10.3613 0.144043C4.70377 0.144043 0.117188 3.81112 0.117188 8.33446C0.117188 12.3506 3.73174 15.6919 8.49876 16.3899V18.014H6.63619C5.60595 18.014 4.77362 18.6795 4.77362 19.5032C4.77362 20.3269 5.60595 20.9924 6.63619 20.9924H8.49876V22.4815C8.49876 23.3052 9.33109 23.9707 10.3613 23.9707C11.3916 23.9707 12.2239 23.3052 12.2239 22.4815V20.9924H14.0865C15.1167 20.9924 15.949 20.3269 15.949 19.5032C15.949 18.6795 15.1167 18.014 14.0865 18.014H12.2239V16.3899Z" fill="black" fill-opacity="0.57"/>
</svg>
