<svg width="23" height="23" viewBox="0 0 23 23" fill="none" xmlns="http://www.w3.org/2000/svg">
<path d="M14.5901 0.888976C14.7763 0.435976 15.2194 0.144043 15.7077 0.144043H21.3464C22.016 0.144043 22.5547 0.682609 22.5547 1.35204V6.98937C22.5547 7.4776 22.2627 7.92054 21.8096 8.10677C21.3565 8.293 20.8379 8.19234 20.4905 7.84504L18.809 6.16391L16.1608 8.81144C17.1426 10.2409 17.7215 11.9673 17.7215 13.8347C17.7215 18.7271 13.7543 22.6934 8.86077 22.6934C3.96721 22.6934 0 18.7271 0 13.8347C0 8.9423 3.96721 4.97604 8.86077 4.97604C10.7235 4.97604 12.4554 5.54984 13.8852 6.53637L16.5334 3.88884L14.8519 2.20771C14.5045 1.86041 14.4038 1.34198 14.5901 0.888976ZM8.86077 19.472C9.60125 19.472 10.3345 19.3262 11.0186 19.0429C11.7027 18.7596 12.3243 18.3444 12.8479 17.8209C13.3715 17.2974 13.7869 16.676 14.0702 15.992C14.3536 15.3081 14.4994 14.575 14.4994 13.8347C14.4994 13.0944 14.3536 12.3613 14.0702 11.6774C13.7869 10.9934 13.3715 10.372 12.8479 9.84851C12.3243 9.32503 11.7027 8.90979 11.0186 8.62649C10.3345 8.34318 9.60125 8.19737 8.86077 8.19737C8.12029 8.19737 7.38706 8.34318 6.70294 8.62649C6.01883 8.90979 5.39723 9.32503 4.87363 9.84851C4.35003 10.372 3.93469 10.9934 3.65132 11.6774C3.36795 12.3613 3.2221 13.0944 3.2221 13.8347C3.2221 14.575 3.36795 15.3081 3.65132 15.992C3.93469 16.676 4.35003 17.2974 4.87363 17.8209C5.39723 18.3444 6.01883 18.7596 6.70294 19.0429C7.38706 19.3262 8.12029 19.472 8.86077 19.472Z" fill="black" fill-opacity="0.57"/>
</svg>
